<?xml version="1.0" encoding="UTF-8"?>
<svg id="Layer_1" data-name="Layer 1" xmlns="http://www.w3.org/2000/svg" viewBox="0 0 4000 4000">
  <defs>
    <style>
      .cls-1 {
        fill: #010101;
      }
    </style>
  </defs>
  <path class="cls-1" d="m1583.26,369.9c-52.59,13.38-103.89,29.1-153.95,47.05,404.72,146.15,841.77,123.3,1262.45,49.59-336.35-151.35-724.1-194.43-1108.5-96.63Z"/>
  <path class="cls-1" d="m1427.08,825.97c474.62,126.72,974.34,28.58,1438.04-97.47,58.72-15.97,117.83-32.79,177.36-50.12-71.63-56.07-147.66-106.29-227.19-150.06-505.66,109.8-1045.95,164.6-1531.52-51.51-99.47,46.48-192.88,101.98-279.49,165.34,128.09,79.74,268.42,142.66,422.81,183.84Z"/>
  <path class="cls-1" d="m1209.29,1549.3c494.1,115.74,1007.64-33.41,1469.84-205.21,227.04-84.35,466.1-190.95,711.98-296.34-54.87-79.38-116.17-153.29-182.96-221.35-126.3,44.47-250.88,87.61-373.02,126.36-452.57,143.65-944.73,267.21-1420.1,169.6-240.13-49.25-447.47-152.27-628.01-290.83-100.55,103.92-187.16,220.11-257.89,345.36,189.31,176.01,412.78,309.81,680.15,372.42Z"/>
  <path class="cls-1" d="m1444.98,2572.43c650.31-104.79,1238.3-486.57,1799.33-809.2,124.59-71.65,251.59-146.25,381-219.47-19.44-68.32-42.92-134.51-70.12-198.31-312.99,155.7-620.67,322.86-937.35,470.52-446.33,208.06-947.31,410.35-1450.15,354.81-340.87-37.67-614.47-198.81-837.86-422.55-27.59,175.47-27.68,357.52,3.27,540.3l.02.06c65.13,53.95,134.95,102.66,210.03,144.83,276.33,155.17,592.54,188.83,901.83,139Z"/>
  <path class="cls-1" d="m3460.89,2856.67c-198,177.5-391.93,359.66-586.55,539.38-50.44,46.62-100.91,93.38-151.5,140.18,315.24-149.01,569.49-389.34,738.05-679.56Z"/>
  <path class="cls-1" d="m2684.28,3355.59c-109.07,93.88-229.99,200.72-360.08,311.39,30.89-6.01,61.74-12.97,92.57-20.81,66.17-16.83,130.44-37.36,192.58-61.4l.07-.02c91.7-82.95,182.9-166.26,273.94-249.11,206.75-188.09,412.76-378.8,623.66-563.76l-.02-.06c32.61-64.15,61.12-130.41,85.42-198.41-308.25,254.07-605.75,521.85-908.16,782.18Z"/>
  <path class="cls-1" d="m2641.86,2751.09c-432.4,301.35-903.87,627.72-1425.25,753.85,171.2,89.74,357.99,150.5,552.38,177.53l.07-.02c356.8-210.57,690.29-478.6,966.93-694.75,311.45-243.37,617.78-495.58,935.98-731.01l-.02-.06c12.34-82.16,18.64-165.66,18.55-250.07-355.77,238.88-697.62,499.86-1048.63,744.52Z"/>
  <path class="cls-1" d="m3684.73,1868.91c-7.48-90-22.29-180.53-44.94-270.92-138.56,80.34-274.3,162.58-407.34,241.45-555.91,329.55-1137.4,716.46-1782.98,838.49-309.16,58.44-627.51,36.56-909.25-112.44-59.62-31.5-115.92-67.21-169.21-106.42,89.26,322.83,267.5,598.63,501.43,807.5,86.96,6.18,178,3.03,273.26-10.44,556-78.68,1063.21-405.98,1523.54-707.45,339.95-222.66,671.67-461.53,1015.49-679.76Z"/>
</svg>