<?xml version="1.0" encoding="UTF-8"?>
<svg id="Layer_1" data-name="Layer 1" xmlns="http://www.w3.org/2000/svg" xmlns:xlink="http://www.w3.org/1999/xlink" viewBox="0 0 4000 4000">
  <defs>
    <style>
      .cls-1 {
        isolation: isolate;
      }

      .cls-2 {
        clip-path: url(#clippath-1);
      }

      .cls-3 {
        stroke: #010101;
        stroke-miterlimit: 10;
        stroke-width: 36.42px;
      }

      .cls-3, .cls-4 {
        fill: none;
      }

      .cls-5 {
        clip-path: url(#clippath);
      }

      .cls-6 {
        fill: #010101;
      }
    </style>
    <clipPath id="clippath">
      <path class="cls-4" d="m3701.86,1674.24c14.41,73.16,25.88,172.33,29.33,246.82,3.8,81.98.03,191.88-9.31,273.41-15.21,132.76-46.25,264.27-92.25,390.86-27.18,74.8-71.18,171.86-109.39,241.67-38.09,69.6-96.05,158.63-144.2,221.69-48.17,63.08-118.84,142.45-175.97,197.54-57.35,55.31-138.15,125.39-204.68,169.23-67.1,44.22-158.2,101.3-230.31,136.76-36.46,17.93-86.41,39.03-123.81,54.9-39.06,16.58-92.81,34.74-133.56,46.59-44.36,12.9-54.89,15.97-86.61,23.79-49.52,12.22-89.16,19.61-89.26,19.61-5.17.97-10.33,1.97-15.51,2.91-11.17,2.04-24.71,4.35-24.82,4.37-58.18,9.74-105.86,14.73-129.11,16.85-40.17,3.65-93.93,8.11-134.25,7.08-40.03-1.03-93.6.65-133.43-3.46-78.94-8.15-184.4-20.18-261.88-37.33-76.83-17.01-178.8-44.78-251.09-75.86-71.84-30.88-166.08-75.73-235.38-111.95-34.55-18.06-78.01-46.87-110.29-68.74-32.93-22.31-75.73-53.74-106.87-78.5-31.2-24.8-72.07-58.92-100.75-86.59-57.53-55.5-130.01-134-180.74-195.77-25.57-31.13-56.62-75.09-79.03-108.56-22.55-33.69-50.18-80.19-70.71-115.14-20.71-35.26-44.82-84.3-61.93-121.44-17.29-37.55-38.38-88.54-52.6-127.36-14.41-39.32-31.54-92.53-42.74-132.87-11.38-41-23.97-96.37-32.38-138.08-14.74-73.09-23.51-172.48-29.33-246.82-3.23-41.17-2.09-96.37-.81-137.65,1.27-40.82,3.89-95.41,10.12-135.77,12.3-79.7,29.94-186.14,51.55-263.84,35.48-127.6,85.98-251.65,150.09-368.7,83.78-152.95,191.5-295.14,320.17-419.23,96.29-92.86,202.89-174.26,316.82-241.93,69.55-41.31,166.59-89.63,241.97-118.96,39.55-15.38,92.91-34.39,133.56-46.59,31.49-9.46,80.91-23.62,146.22-37.42,5.02-1.06,17.26-3.54,17.35-3.56,4.1-.82,8.2-1.63,12.3-2.41,41.78-8.03,72.96-12.49,86.27-14.4,29.85-4.27,47.86-6.12,80.56-9.48,40.9-4.2,95.75-7.89,136.87-7.32,40.04.55,93.47.87,133.43,3.46,79.19,5.13,184.14,21.36,261.88,37.33,77.08,15.83,177.69,47.49,251.09,75.86,72.94,28.18,166.08,75.72,235.38,111.95,34.55,18.06,77.2,48.11,110.29,68.74,365.95,247.89,637.32,635.41,727.39,1103.85,180.14,936.94-433.35,1842.77-1370.23,2023.19,936.89-180.42,1550.37-1086.25,1370.23-2023.19-90.06-468.44-361.43-855.96-727.39-1103.85,94.45,63.98,149.45,113.12,207.67,165.13,29.79,26.61,66.94,64.93,94.03,94.28,35.56,38.52,99.07,110.5,165.76,210.13,28.91,43.19,81.4,125.36,132.63,236.6,17.29,37.54,36.9,89.09,52.58,127.32,31.99,78.02,58.79,188.12,75.09,270.86Z"/>
    </clipPath>
    <clipPath id="clippath-1">
      <path class="cls-4" d="m2974.11,569.91c32.07,23.55,75.75,53.75,106.89,78.52,31.21,24.81,71.58,59.48,100.78,86.62,29.25,27.18,66.9,64.89,93.98,94.23,27.19,29.46,62.57,69.66,86.79,101.61,24.33,32.09,56.59,75.06,78.99,108.53,22.55,33.7,51.6,79.44,70.73,115.19,38.76,72.43,83.77,172.55,114.48,248.73,15.66,38.85,31.55,92.56,42.75,132.93,11.37,40.97,24.33,96.22,32.35,137.97,8,41.62,16.42,97.57,21.02,139.7,8.99,82.34,12.1,193.28,7.75,276-4.26,81-17.63,188.92-35.61,268.02-17.74,78.09-47.38,181.11-76.05,255.89-28.47,74.27-74.11,170.51-113.52,239.6-39.31,68.91-98.76,156.93-147.99,219.14-49.26,62.25-121.63,140.08-179.41,194.52-58.03,54.68-141.79,120.97-207.77,165.73-66.59,45.18-160.56,97.84-233.05,132.78-65.18,31.42-155.77,65.85-225.04,86.74-45.42,13.7-82.16,23.47-122.82,32.68-16.02,3.63-64.76,14.67-128.62,24.26-34.62,5.2-76.66,10.12-95.75,11.7-40.2,3.32-93.92,7.1-134.26,7.28-79.8.36-186.45-5.61-265.46-16.76-78.23-11.04-181.55-33.78-257.21-56.53-75.11-22.58-173.56-59.38-244-93.86-35.09-17.18-81.58-40.79-115.52-60.17-34.52-19.7-80-47.09-112.49-69.99-65.02-45.84-149.27-110.91-207.57-165.04-29.26-27.16-66.91-64.89-93.99-94.22-27.2-29.45-62.58-69.66-86.8-101.6-48.78-64.34-109.29-153.76-149.71-223.66-20.47-35.41-44.84-84.3-61.94-121.45-17.29-37.55-39.16-88.27-52.61-127.36-27.45-79.76-57.53-188.45-75.13-270.95-8.84-41.46-16.43-97.6-21.03-139.74-8.99-82.34-12.1-193.29-7.75-276.01,9.42-178.95,46.98-355.23,111.65-523.91,28.47-74.27,74.13-170.5,113.52-239.6,39.29-68.92,98.76-156.93,147.99-219.14,82.47-104.22,176.66-198.84,279.94-281.24,62.57-49.91,151.57-109.59,220.79-149.77,70.08-40.69,167.93-88.3,244.53-114.74,29.95-10.34,69.77-24.47,99.99-34.01,25.68-8.1,60.41-17.26,86.48-24.01.35-.09,36.72-9.38,81.59-18.34,13.93-2.78,28.07-5.43,42.02-7.87,16.39-2.87,26.32-4.4,41.36-6.72,29.28-4.52,76.32-10.1,95.76-11.7,40.2-3.32,93.96-5.54,134.26-7.29,40.01-1.73,93.48.73,133.45,3.26,79.21,5.01,184.45,19.9,261.96,36.94,38.53,8.47,89.94,20.32,127.26,33.08,74.21,25.37,171.92,62.94,244,93.86,35.91,15.41,81.57,40.82,115.52,60.16,34.53,19.68,79.56,47.73,112.49,69.99-366.03-247.94-826.69-356.18-1295.19-265.96,468.5-90.22,929.15,18.02,1295.19,265.96Z"/>
    </clipPath>
  </defs>
  <g class="cls-1">
    <g class="cls-1">
      <g class="cls-5">
        <path class="cls-6" d="m3520.67,2826.22c-88.23,147.71-128.51,215.13-264.11,362.96,25.97-27.13,59.86-64.07,83.84-92.97,88.8-108.35,164.32-227.21,224.68-353.84-12.86,25.4-29.8,59.42-44.41,83.85m-1188.17,870.77l-1.23-.04h0s15.23-2.72,15.23-2.72c-1.53.31-3.58.72-5.11,1.02-1.7.34-3.4.67-5.11,1-1.14.22-2.63.64-3.78.73m1369.36-2022.75c29.6,196.67,30.76,204.35,30.13,384.69l.84-43.1c.92-112.7-9.24-227.15-31.33-342.07-6.42-33.38-13.76-66.35-21.98-98.88l4.51,17.21,17.84,82.15m-1426.75,2032.84l56.15-10.13h0s-25.11,4.91-25.11,4.91c-1.21.21-2.82.5-4.03.71-3.53.61-7.07,1.22-10.6,1.82-5.38.89-10.76,1.79-16.15,2.64l-.26.04m906.67-2972.04c49.89,50.02,114.91,118.29,161.28,171.59l-5.18-6.23c-89.86-108.72-192.43-205.62-304.95-288.85l1.04.77c44.97,36.05,105.99,83.06,147.81,122.72m-1683.28,2917.04c400.36,118.54,815.3,47.93,832.76,44.87-122.38,20.28-269.16,40.68-462.77,26-190.97-22.76-194.62-23.2-370-70.87m-876.36-615.19c223.62,258.61,634.27,385.36,1362.45,541.8,286.21,61.49,359.98,79.86,370.45,105.23-5.73,5.78-16.11,10.32-23.78,13.02h0c-9.55-.15-997.59-45.97-1421.89-360.48l-80.86-70.53q-125.6-125.9-180.79-195.82l-25.58-33.22m-343.67-1102.67c39.45,494.93,724.49,752.15,1615.94,1037,1027.28,328.24,1174.26,572.42,436.85,725.74h0c342.64-79.12,270.38-178.5,149.43-247.94-112.18-64.4-285.03-115.91-629.4-218.52-957.85-285.41-1432.34-489.87-1538.19-879.89l-4.77-23.94c-24.98-165.99-30.92-205.43-29.85-392.44m2995.71,1238.16c-95.07,103.14-202.99,195.1-321.88,273.14,626.68-455.87-146.22-776.13-991.58-1065.08C455.98,1866.08,345.05,1534.45,449.33,1252.69c82.74-155.74,106.43-193.22,211.23-334.23-276.39,448,357.97,719.06,1357.29,1081.45,909.68,329.89,1690.29,667.8,1256.34,1172.46m454.63-1052.35c-9.93,143.88-37.84,284.18-81.88,418.16,126.11-590.61-809.96-952.6-1779.54-1272.76-425.23-140.41-1310.06-432.58-670.65-791.99,152.9-73.77,172.55-83.24,301.22-124.89l30.83-9.11c-478.06,148.97-348.75,305.25-156.09,410.11,585.02,318.43,1270.6,375.59,1848.74,711.87,238.56,138.76,520.23,365.66,507.37,658.59m-328.45-1139.31c83.61,114.28,153.85,239.93,207.97,375.07-190.37-367.89-666.93-551.19-1597.87-800.29-336.34-90-654.02-175.01-359.05-246.31l5.33-1.11,6.47-1.32,5.22-1.04c-4.88,1.43-11.38,3.34-16.26,4.76-.47,3.74-1.1,8.74-1.57,12.48,36.29,18.33,82.25,28.77,300.66,73.92,598.47,123.69,1203.33,270.66,1449.09,583.84m-1031.98-669.31c193.58,49.54,258.35,68.33,459.62,169.85-460.87-219.59-1061.02-191.89-1135.65-180.11l1.5-.27c1.9-.35,4.44-.81,6.35-1.15,2.36-.42,5.5-.98,7.86-1.39l4.82-.84c350.05-50.99,625.27,7.12,655.5,13.92m51.77,3366.33c-26.63,5.95-62.1,14.06-88.89,19.21l8.58-1.68c147.97-29.26,287.81-76.63,417.64-139.38-78.95,36.64-91.09,42.28-165.38,69.84l-79.9,26.61c-56.37,16.43-58.57,17.07-90.92,25.11l-1.13.28"/>
      </g>
    </g>
    <g class="cls-1">
      <g class="cls-2">
        <path class="cls-6" d="m3520.67,2826.22c-333.58,485.5-1180.63,868.39-1188.17,870.77l3.78-.73,5.11-1,5.11-1.02c102.88-24.91,558.85-183.64,910.06-505.05,102.99-117.51,165.15-188.44,264.11-362.96m163.35-1234.13c75.32,462.95-335.14,882.41-1170.66,1541.71-334.88,264.25-840.94,663.58-238.25,573.28l.26-.04c4.84-.79,11.31-1.83,16.15-2.64l10.6-1.82,4.03-.71c-50.39,6.99-155.26,21.54-103.78-54.77,39.68-58.82,157.99-146.07,393.71-319.9,557.33-411.01,1104.13-847.49,1135.91-1268.26-.92-160.44-1.16-203.56-30.13-384.69l-17.84-82.15m-650.05-979.76c291.32,241.4,383.63,617.33-902.34,1723.96-692.18,595.65-1217.58,1105.79-633.13,1315.8,148.92,39.63,188.95,50.28,370,70.87-682.54-83.31-198.07-542.2,356.66-1005.08,736.03-614.17,1490.11-1311.27,1117.9-1811.23-46.84-52.88-110.95-122.02-161.28-171.59-43.71-37.57-102.09-87.62-147.81-122.72m-1103.13-338.16c344.61-6.02,831.47,75.23,220.31,687.1-455.31,455.84-1011.04,806.14-1398.95,1332.72-329.4,447.16-184.58,662.02-130.06,742.9l25.58,33.22q115.56,135.27,180.79,195.82l80.86,70.53c-345.58-320.67-89.33-751.69,1015.47-1708.15,451.05-390.48,1290.62-1117.32,435.69-1319.13-139.05-29.25-283.2-41.55-429.7-35.02m-251.92,29.78c55.7-7.22,186.15-24.12,94.45,85.46-58.56,69.98-225.26,194.29-436.31,351.68C769.31,1164.47,297.77,1546.48,278.47,1934.22c.19,161.21.24,204.53,29.85,392.44l4.77,23.94c-50.77-412.09,302.14-770.35,1112.42-1417.55,349.29-278.99,933.89-745.93,253.41-629.11h0m0,0c-198.82,52.38-793.68,312.09-1018.36,614.52-105.14,141.55-128.83,179.03-211.23,334.23,197.56-418.9,991.09-832.09,1229.59-948.75m0,0c-91.54,19.36-97.02,20.52-150.13,35.5l-30.83,9.11c-153.88,53.92-181.61,63.64-301.22,124.89,68.21-35.11,227.95-117.33,482.18-169.49m0,0l-10.48,1.77c-1.56.31-3.65.73-5.22,1.04-2.16.44-4.32.87-6.47,1.32-1.6.33-3.73.77-5.33,1.11l27.51-5.24m0,0l33.96-6.46-4.82.84c-2.62.46-5.24.92-7.86,1.39-2.12.38-4.23.76-6.35,1.15l-1.5.27-13.44,2.8m780.84,29.21c136.44,37.29,267.11,91.09,389.27,159.53l-21.02-11.44c-178.51-87.98-239.76-115.75-459.62-169.85,27.47,6.28,64.18,14.37,91.38,21.75m-780.84-29.21c7.02-1.35,14.03-2.66,21.04-3.92l-21.04,3.92m913.18,3321.79c-93.04,31.24-98.61,33.11-171.95,52l1.13-.28c55.49-14.48,58.81-15.35,90.92-25.11l79.9-26.61"/>
      </g>
    </g>
  </g>
  <circle class="cls-3" cx="2000" cy="2000" r="1739.26"/>
</svg>