<?xml version="1.0" encoding="UTF-8"?>
<svg id="Layer_1" data-name="Layer 1" xmlns="http://www.w3.org/2000/svg" viewBox="0 0 4000 4000">
  <defs>
    <style>
      .cls-1 {
        stroke-width: 57.72px;
      }

      .cls-1, .cls-2 {
        fill: none;
        stroke: #231f20;
        stroke-miterlimit: 10;
      }

      .cls-2 {
        stroke-width: 57px;
      }
    </style>
  </defs>
  <circle class="cls-2" cx="2000" cy="2000" r="1666.96"/>
  <line class="cls-2" x1="333.04" y1="2000" x2="3666.96" y2="2000"/>
  <line class="cls-2" x1="2000" y1="3666.96" x2="2000" y2="333.04"/>
  <line class="cls-2" x1="536.18" y1="2798.13" x2="3463.82" y2="2798.13"/>
  <line class="cls-2" x1="536.18" y1="1211.21" x2="3463.82" y2="1211.21"/>
  <path class="cls-2" d="m2000,3666.96c60.44-39.14,906.53-608.58,906.53-1666.96S2060.44,372.18,2000,333.04"/>
  <path class="cls-2" d="m2000,333.04c-60.44,39.14-906.53,608.58-906.53,1666.96s846.09,1627.82,906.53,1666.96"/>
  <path class="cls-2" d="m2000,3666.96c148.75-267.25,432.66-861.51,432.66-1666.96s-283.91-1399.71-432.66-1666.96"/>
  <path class="cls-2" d="m2000,333.04c-148.75,267.25-432.66,861.51-432.66,1666.96s283.91,1399.71,432.66,1666.96"/>
  <path class="cls-1" d="m2000,3666.96c776.55-195.97,1323.21-884.64,1323.21-1666.96S2776.55,529.01,2000,333.04"/>
  <path class="cls-1" d="m2000,333.04c-776.55,195.97-1323.21,884.64-1323.21,1666.96s546.66,1470.99,1323.21,1666.96"/>
</svg>