<?xml version="1.0" encoding="UTF-8"?>
<svg id="Layer_1" data-name="Layer 1" xmlns="http://www.w3.org/2000/svg" viewBox="0 0 4000 4000">
  <defs>
    <style>
      .cls-1 {
        fill: none;
      }

      .cls-2 {
        fill: #010101;
      }
    </style>
  </defs>
  <circle class="cls-1" cx="2000" cy="2000" r="118.68"/>
  <path class="cls-2" d="m2050.62,1855.96l381.1-1046.76c15.34-42.12-.63-89.25-38.42-113.37l-495.42-316.3c-64.12-40.94-146.89,11.52-137.23,86.99l178.41,1393.51c18.68-8.16,39.28-12.7,60.93-12.7,17.74,0,34.77,3.05,50.62,8.64Z"/>
  <path class="cls-2" d="m1933.95,1862.36l-470.69-1009.66c-18.94-40.63-63.55-62.66-107.33-53l-573.97,126.65c-74.29,16.39-95.72,112.02-35.53,158.54l1111.5,859.19c14.16-35.85,41.5-65.09,76.03-81.73Z"/>
  <path class="cls-2" d="m1855.96,1949.38l-1046.76-381.1c-42.12-15.34-89.25.63-113.37,38.42l-316.3,495.42c-40.94,64.12,11.52,146.89,86.99,137.23l1393.51-178.41c-8.16-18.68-12.7-39.28-12.7-60.93,0-17.74,3.05-34.77,8.64-50.62Z"/>
  <path class="cls-2" d="m1862.36,2066.05l-1009.66,470.69c-40.63,18.94-62.66,63.55-53,107.33l126.65,573.97c16.39,74.29,112.02,95.72,158.54,35.53l859.19-1111.5c-35.85-14.16-65.09-41.5-81.73-76.03Z"/>
  <path class="cls-2" d="m1949.38,2144.04l-381.1,1046.76c-15.34,42.12.63,89.25,38.42,113.37l495.42,316.3c64.12,40.94,146.89-11.52,137.23-86.99l-178.41-1393.51c-18.68,8.16-39.28,12.7-60.93,12.7-17.74,0-34.77-3.05-50.62-8.64Z"/>
  <path class="cls-2" d="m2066.05,2137.64l470.69,1009.66c18.94,40.63,63.55,62.66,107.33,53l573.97-126.65c74.29-16.39,95.72-112.02,35.53-158.54l-1111.5-859.19c-14.16,35.85-41.5,65.09-76.03,81.73Z"/>
  <path class="cls-2" d="m3533.49,1760.66l-1393.51,178.41c8.16,18.67,12.7,39.28,12.7,60.93,0,17.74-3.05,34.77-8.64,50.62l1046.76,381.1c42.12,15.34,89.25-.63,113.37-38.42l316.3-495.42c40.94-64.12-11.52-146.89-86.99-137.23Z"/>
  <path class="cls-2" d="m2137.64,1933.95l1009.66-470.69c40.63-18.94,62.66-63.55,53-107.33l-126.65-573.97c-16.39-74.29-112.02-95.72-158.54-35.53l-859.19,1111.5c35.85,14.16,65.09,41.5,81.73,76.03Z"/>
  <path d="m2139.98,1939.07c-.75-1.72-1.53-3.43-2.34-5.12-16.63-34.52-45.88-61.87-81.73-76.03-1.75-.69-3.51-1.34-5.29-1.96-15.85-5.59-32.89-8.64-50.62-8.64-21.65,0-42.25,4.54-60.93,12.7-1.72.75-3.43,1.53-5.12,2.34-34.52,16.63-61.87,45.88-76.03,81.73-.69,1.75-1.34,3.51-1.96,5.29-5.59,15.85-8.64,32.89-8.64,50.62,0,21.65,4.54,42.25,12.7,60.93.75,1.72,1.53,3.43,2.34,5.12,16.63,34.52,45.88,61.87,81.73,76.03,1.75.69,3.51,1.34,5.29,1.96,15.85,5.59,32.89,8.64,50.62,8.64,21.65,0,42.25-4.54,60.93-12.7,1.72-.75,3.43-1.53,5.12-2.34,34.52-16.63,61.87-45.88,76.03-81.73.69-1.75,1.34-3.51,1.96-5.29,5.59-15.85,8.64-32.89,8.64-50.62,0-21.65-4.54-42.25-12.7-60.93Zm-139.98-57.75c65.44,0,118.68,53.24,118.68,118.68s-53.24,118.68-118.68,118.68-118.68-53.24-118.68-118.68,53.24-118.68,118.68-118.68Z"/>
</svg>