<?xml version="1.0" encoding="UTF-8"?>
<!DOCTYPE svg PUBLIC "-//W3C//DTD SVG 1.1//EN" "http://www.w3.org/Graphics/SVG/1.1/DTD/svg11.dtd">
<svg xmlns="http://www.w3.org/2000/svg" version="1.1" width="944px" height="462px" style="shape-rendering:geometricPrecision; text-rendering:geometricPrecision; image-rendering:optimizeQuality; fill-rule:evenodd; clip-rule:evenodd" xmlns:xlink="http://www.w3.org/1999/xlink">
<g><path style="opacity:0.994" fill="#000000" d="M 23.5,60.5 C 88.1667,60.5 152.833,60.5 217.5,60.5C 217.5,84.8333 217.5,109.167 217.5,133.5C 178.5,133.5 139.5,133.5 100.5,133.5C 100.5,149.167 100.5,164.833 100.5,180.5C 135.167,180.5 169.833,180.5 204.5,180.5C 204.5,202.833 204.5,225.167 204.5,247.5C 169.833,247.5 135.167,247.5 100.5,247.5C 100.5,283.5 100.5,319.5 100.5,355.5C 74.8333,355.5 49.1667,355.5 23.5,355.5C 23.5,257.167 23.5,158.833 23.5,60.5 Z"/></g>
<g><path style="opacity:0.996" fill="#000000" d="M 260.5,60.5 C 286.167,60.5 311.833,60.5 337.5,60.5C 337.5,158.833 337.5,257.167 337.5,355.5C 311.833,355.5 286.167,355.5 260.5,355.5C 260.5,257.167 260.5,158.833 260.5,60.5 Z"/></g>
<g><path style="opacity:0.991" fill="#000000" d="M 377.5,60.5 C 418.835,60.3333 460.168,60.5 501.5,61C 535.151,62.7459 563.318,75.9126 586,100.5C 606.407,128.952 610.407,159.618 598,192.5C 586.043,216.624 567.543,233.624 542.5,243.5C 565.909,281.07 589.909,318.237 614.5,355C 585.167,355.667 555.833,355.667 526.5,355C 505.375,321.251 484.375,287.417 463.5,253.5C 460.572,252.516 457.572,252.183 454.5,252.5C 454.5,286.833 454.5,321.167 454.5,355.5C 428.833,355.5 403.167,355.5 377.5,355.5C 377.5,257.167 377.5,158.833 377.5,60.5 Z M 454.5,130.5 C 468.504,130.333 482.504,130.5 496.5,131C 519.979,133.48 529.812,146.314 526,169.5C 521.153,180.684 512.653,187.184 500.5,189C 485.17,189.5 469.837,189.667 454.5,189.5C 454.5,169.833 454.5,150.167 454.5,130.5 Z"/></g>
<g><path style="opacity:0.987" fill="#000000" d="M 763.5,60.5 C 817.117,55.7509 861.95,73.0843 898,112.5C 929.908,154.921 938.908,201.921 925,253.5C 909.816,299.351 879.649,330.851 834.5,348C 782.861,364.274 734.528,357.608 689.5,328C 650.931,297.525 631.264,257.525 630.5,208C 631.944,150.414 657.277,107.081 706.5,78C 724.598,68.7975 743.598,62.9641 763.5,60.5 Z M 777.5,130.5 C 826.973,132.972 853.306,158.972 856.5,208.5C 855.765,241.499 840.765,265.332 811.5,280C 777.419,292.245 747.919,285.411 723,259.5C 704.669,233.539 701.002,205.539 712,175.5C 725.239,147.966 747.072,132.966 777.5,130.5 Z"/></g>
</svg>
