<?xml version="1.0" encoding="UTF-8"?>
<svg id="Layer_1" data-name="Layer 1" xmlns="http://www.w3.org/2000/svg" viewBox="0 0 4000 4000">
  <defs>
    <style>
      .cls-1 {
        fill: #000;
      }
    </style>
  </defs>
  <g id="_Radial_Repeat_" data-name="&amp;lt;Radial Repeat&amp;gt;">
    <path class="cls-1" d="m3253.08,2084.57c502.75-305.26,870.3-590.99-88.31-556.07,320.58-493.12,527.71-910.11-320.85-462.61,74.93-583.43,80.61-1048.99-489.84-277.7-185.58-558.15-382.53-979.95-561.69-37.6-409.49-422.21-769.88-717.03-522.49,209.8-552.19-202.77-1004.7-311.95-379.66,415.78-585.51,56.73-1040.49,154.87-161.7,539.28-502.75,305.26-870.3,590.99,88.31,556.07-320.58,493.12-527.71,910.04,320.85,462.61-74.93,583.5-80.55,1048.99,489.84,277.63,185.51,558.15,382.6,980.02,561.69,37.66,409.5,422.21,769.88,717.03,522.49-209.8,552.19,202.77,1004.7,311.95,379.66-415.78,585.51-56.73,1040.49-154.87,161.7-539.28Zm-10.1-470.17c363.6-14.12-162.63,233.61-385.21,329.01,78.87-92.19,154.74-189.93,244.45-320.79,44.82-3.55,91.79-6.36,140.76-8.23Zm-492.52-53.25c27.96-106.3,55.26-233.48,77.94-383.34,38.87-22.68,80.01-45.56,123.3-68.51,314.1-166.58-28.7,260.64-193.47,451.04h-.07c-.67.74-1.27,1.47-1.87,2.21-3.01,3.48-5.95,6.89-8.9,10.24,1-3.81,2.07-7.69,3.08-11.64Zm-280.38-780.52c210.67-286.33,87.17,247.4,21.34,490.38-.2.87-.47,1.74-.74,2.68-1.2,4.55-2.47,8.96-3.61,13.31-22.75-119.15-51.98-239.37-98.41-391.1,25.22-37.26,52.32-75.73,81.42-115.27Zm-576.54-87.24c67.03-357.65,191.74,210.87,235.09,448.97-72.25-97.54-150.66-193.07-258.37-309.75,6.49-44.49,14.25-90.98,23.28-139.22Zm-160.56,460.61c3.34,4.55,6.56,9.03,9.77,13.38-107.31-56.33-219.57-108.58-367.15-166.92-13.38-42.88-26.63-88.04-39.34-135.41-92.32-342.86,247,85.03,396.72,288.94Zm-1037.62,650.13c-333.9-145.17,248.2-139.75,489.97-129.32-111.19,48.64-221.84,103.96-359.52,182.97-41.95-16.26-85.5-34.12-130.45-53.65Zm43.28,581.49c-363.67,14.05,162.9-233.35,385.21-329.01-78.87,92.19-154.74,189.93-244.45,320.79-44.82,3.55-91.79,6.36-140.76,8.23Zm492.52,53.25c-27.96,106.3-55.26,233.48-77.94,383.34-38.87,22.68-80.01,45.56-123.3,68.51-314.1,166.58,28.7-260.64,193.47-451.04h.07c.67-.74,1.27-1.47,1.87-2.21.67-.74,1.27-1.54,1.87-2.21.27-.27.47-.47.67-.74,2.14-2.48,4.28-4.88,6.36-7.29-1,3.81-2.07,7.69-3.08,11.64Zm-228.33-1072.54c-30.71-32.85-62.22-67.77-94.2-104.9-237.83-275.43,283.99-18.4,497.4,96.07-121.22-4.21-244.92-2.68-403.21,8.83Zm508.71,1853.06c-210.67,286.33-87.17-247.4-21.34-490.38.2-.87.47-1.74.74-2.68,1.2-4.55,2.41-8.96,3.61-13.31,22.75,119.15,51.98,239.37,98.41,391.1-25.22,37.26-52.32,75.73-81.42,115.27Zm576.54,87.24c-65.56,348.82-185.65-183.77-232.08-432.44v-.07c-1.07-5.69-2.07-11.17-3.01-16.46,72.25,97.54,150.72,193.21,258.43,309.81-6.56,44.49-14.32,90.92-23.35,139.15Zm96.27-726.6c-4.88-.07-9.7-.13-14.58-.2h-.2c-56.53,17.39-116.54,26.76-178.76,26.76-28.7,0-56.86-2.01-84.49-5.89l7.16,5.89c-4.41-2.21-8.83-4.48-13.25-6.69h-.07c-89.98-13.51-173.54-46.76-246.06-95.33l4.08,8.83c-3.14-4.15-6.36-8.36-9.57-12.51-73.19-50.04-134.8-115.8-180.09-192.34l-.13,9.3c-1-4.88-2.07-9.83-3.08-14.72-43.48-75.26-71.31-160.69-78.94-251.88l-4.15,8.36c1.2-4.88,2.41-9.83,3.61-14.72-1.07-14.85-1.61-29.84-1.61-44.96,0-173.54,72.85-330.02,189.66-440.54l-8.9,1.87c4.55-2.07,9.03-4.15,13.58-6.22,64.42-59.81,141.76-105.63,227.39-133l-8.56-2.07c4.82.07,9.63.13,14.38.27,56.6-17.53,116.74-26.89,179.02-26.89,28.63,0,56.73,2.01,84.29,5.82l-7.09-5.82c4.41,2.21,8.83,4.48,13.25,6.69,90.05,13.45,173.67,46.76,246.19,95.27l-4.01-8.7c3.14,4.15,6.29,8.23,9.43,12.38.2.33.47.6.74.94-.27-.27-.47-.6-.67-.94,73.26,50.11,134.87,115.8,180.16,192.4l.13-9.23c1,4.82,2.01,9.7,3.08,14.52v.07c43.48,75.26,71.31,160.76,78.94,252.01l4.15-8.36c-1.2,4.88-2.41,9.77-3.61,14.65v.07c1.07,14.79,1.61,29.77,1.61,44.82,0,76.07-13.98,148.85-39.6,215.95v.07l7.29-5.69c-3.21,3.88-6.42,7.69-9.57,11.57-32.85,83.62-83.76,158.15-147.85,218.76l8.9-1.87c-4.48,2.07-9.03,4.15-13.51,6.22l-.07.07c-64.42,59.67-141.76,105.57-227.39,132.86l8.76,2.14Zm64.29,265.93c-3.34-4.55-6.62-9.03-9.77-13.38,107.31,56.4,219.56,108.65,367.15,166.98,13.38,42.88,26.63,88.04,39.34,135.41,92.32,342.86-247-85.1-396.72-289.01Zm341.59-195.62c-5.02-2.68-9.9-5.28-14.65-7.83,121.22,4.21,244.92,2.68,403.21-8.83,30.71,32.85,62.22,67.77,94.2,104.9,231.94,268.8-259.37,30.51-482.75-88.24Zm222.78-324.46c-5.75-.2-11.24-.47-16.66-.67,111.05-48.7,221.77-103.9,359.45-182.97,41.94,16.26,85.5,34.12,130.45,53.65,325.6,141.63-220.57,140.09-473.25,129.99Z"/>
  </g>
  <g id="_Radial_Repeat_-2" data-name="&amp;lt;Radial Repeat&amp;gt;">
    <path class="cls-1" d="m2698.28,1616.67c-.67.74-1.27,1.47-1.94,2.21.6-.74,1.21-1.47,1.87-2.21h.07Z"/>
  </g>
</svg>